<?xml version="1.0" encoding="utf-8"?>
<!-- Generator: Adobe Illustrator 26.0.3, SVG Export Plug-In . SVG Version: 6.00 Build 0)  -->
<svg version="1.1" id="Layer_1" xmlns="http://www.w3.org/2000/svg" xmlns:xlink="http://www.w3.org/1999/xlink" x="0px" y="0px"
	 viewBox="0 0 225.3 204.6" style="enable-background:new 0 0 225.3 204.6;" xml:space="preserve">
<style type="text/css">
	.st0{fill:#8CB1CF;stroke:#8CB1CF;stroke-miterlimit:10;}
	.st1{fill:#23537A;}
	.st2{fill:none;}
	.st3{fill:#23537A;stroke:#23537A;stroke-width:0.75;stroke-miterlimit:10;}
	.st4{fill:#8CB1CF;stroke:#23537A;stroke-miterlimit:10;}
	.st5{fill:#FFFFFF;stroke:#FFFFFF;stroke-miterlimit:10;}
</style>
<circle class="st0" cx="111.9" cy="102.6" r="81.5"/>
<path class="st1" d="M189.6,127.3c-5,15.8-14.7,29.5-27.5,39.5l-47.5-47.5v-18.6h10.7c0.8,0,1.5-0.7,1.5-1.5v-7.1
	c0-0.8-0.7-1.5-1.5-1.5h-10.7V84c0-8.5,4.1-9.5,7.3-9.5c1.8,0,3.4,0.4,4.8,1.2c0.5,0.3,1,0.3,1.5,0s0.7-0.8,0.7-1.3v-7.5
	c0-0.1,0-0.2,0-0.3L189.6,127.3z"/>
<path class="st1" d="M162.1,166.8c-6.9,5.4-14.8,9.8-23.3,12.7L105,145.7h-0.2c-0.8,0-1.5-0.7-1.5-1.5V108l-7.3-7.3h-0.1
	c-0.8,0-1.5-0.7-1.5-1.5v-7.1c0-0.8,0.7-1.5,1.5-1.5h7.4v-7c0-5.9,1.7-10.6,5.2-14s7.8-5.2,12.9-5.2c2.8,0,4.9,0.3,6.6,1
	c0.5,0.2,0.8,0.6,0.9,1.1c0,0.1,0,0.2,0,0.3v7.5c0,0.5-0.3,1-0.7,1.3c-0.5,0.3-1,0.3-1.5,0c-1.4-0.8-3-1.2-4.8-1.2
	c-3.1,0-7.3,1-7.3,9.5v6.5h10.7c0.8,0,1.5,0.7,1.5,1.5V99c0,0.8-0.7,1.5-1.5,1.5h-10.7v18.6L162.1,166.8z"/>
<line class="st2" x1="124.9" y1="65" x2="124.4" y2="64.6"/>
<polyline class="st3" points="94.4,99.1 96,100.7 103.3,108 104.8,109.5 106.3,111 111.6,116.3 113.1,117.8 114.6,119.3 
	162.1,166.8 "/>
<g>
	<g>
		<path class="st4" d="M121.9,73c2.1,0,3.9,0.5,5.5,1.4v-7.5c-1.5-0.6-3.5-0.9-6.1-0.9c-4.7,0-8.6,1.6-11.8,4.8
			c-3.1,3.2-4.7,7.5-4.7,13v8.5h-8.9v7.1h8.9v45h8.3v-45h12.2v-7.1h-12.2v-8C113.1,76.7,116,73,121.9,73z"/>
		<path class="st5" d="M128.9,66.5c-0.1-0.5-0.4-0.9-0.9-1.1c-1.7-0.7-3.9-1-6.6-1c-5.1,0-9.4,1.8-12.9,5.2s-5.2,8.2-5.2,14v7h-7.4
			c-0.8,0-1.5,0.7-1.5,1.5v7.1c0,0.8,0.7,1.5,1.5,1.5h7.4v43.5c0,0.8,0.7,1.5,1.5,1.5h8.3c0.8,0,1.5-0.7,1.5-1.5v-43.5h10.7
			c0.8,0,1.5-0.7,1.5-1.5v-7.1c0-0.8-0.7-1.5-1.5-1.5h-10.7V84c0-8.5,4.1-9.5,7.3-9.5c1.8,0,3.4,0.4,4.8,1.2c0.5,0.3,1,0.3,1.5,0
			c0.5-0.3,0.7-0.8,0.7-1.3v-7.5C128.9,66.7,128.9,66.6,128.9,66.5z M125.9,72.1c-1.3-0.4-2.6-0.6-4-0.6c-4.7,0-10.3,2.2-10.3,12.5
			v8c0,0.8,0.7,1.5,1.5,1.5h10.7v4.1h-10.7c-0.8,0-1.5,0.7-1.5,1.5v43.5h-5.3V99.2c0-0.8-0.7-1.5-1.5-1.5h-7.4v-4.1h7.4
			c0.8,0,1.5-0.7,1.5-1.5v-8.5c0-5.1,1.4-9,4.3-11.9s6.4-4.3,10.8-4.3c1.8,0,3.4,0.2,4.6,0.5L125.9,72.1L125.9,72.1z"/>
	</g>
</g>
</svg>
