<?xml version="1.0" encoding="utf-8"?>
<!-- Generator: Adobe Illustrator 26.0.3, SVG Export Plug-In . SVG Version: 6.00 Build 0)  -->
<svg version="1.1" id="Layer_1" xmlns="http://www.w3.org/2000/svg" xmlns:xlink="http://www.w3.org/1999/xlink" x="0px" y="0px"
	 viewBox="0 0 225.3 204.6" style="enable-background:new 0 0 225.3 204.6;" xml:space="preserve">
<style type="text/css">
	.st0{fill:#8CB1CF;stroke:#8CB1CF;stroke-miterlimit:10;}
	.st1{fill:#23537A;}
	.st2{fill:#FFFFFF;}
	.st3{fill:#8CB1CF;}
	.st4{fill:none;stroke:#FFFFFF;stroke-width:4;stroke-miterlimit:10;}
</style>
<circle class="st0" cx="112.7" cy="102.3" r="81.5"/>
<path class="st1" d="M193.5,113.1c-4.9,37-34.6,66.1-71.8,70.2l-42.4-42.4c-5.5-3.9-9.1-10.3-9.1-17.5V82.2
	c0-11.8,9.6-21.4,21.4-21.4h41.2c7.2,0,13.6,3.6,17.5,9.1L193.5,113.1z"/>
<path class="st2" d="M150.3,69.9c-3.9-5.5-10.3-9.1-17.5-9.1H91.5c-11.8,0-21.4,9.6-21.4,21.4v41.2c0,7.2,3.6,13.6,9.1,17.5
	c3.5,2.4,7.7,3.9,12.3,3.9h41.2c11.8,0,21.4-9.6,21.4-21.4V82.2C154.2,77.6,152.7,73.4,150.3,69.9z M150.2,123.4
	c0,9.6-7.8,17.4-17.4,17.4H91.5c-9.6,0-17.4-7.8-17.4-17.4V82.2c0-9.6,7.8-17.4,17.4-17.4h41.2c9.6,0,17.4,7.8,17.4,17.4V123.4z"/>
<path class="st3" d="M150.2,82.2v41.2c0,9.6-7.8,17.4-17.4,17.4H91.5c-9.6,0-17.4-7.8-17.4-17.4V82.2c0-9.6,7.8-17.4,17.4-17.4h41.2
	C142.4,64.8,150.2,72.6,150.2,82.2z"/>
<path class="st4" d="M112.2,118.8L112.2,118.8c-8.9,0-16.1-7.2-16.1-16.1l0,0c0-8.9,7.2-16.1,16.1-16.1l0,0
	c8.9,0,16.1,7.2,16.1,16.1l0,0C128.2,111.7,121,118.8,112.2,118.8z"/>
<path class="st2" d="M136.1,82.8L136.1,82.8c-2.2,0-4-1.8-4-4l0,0c0-2.2,1.8-4,4-4l0,0c2.2,0,4,1.8,4,4l0,0
	C140.2,81,138.4,82.8,136.1,82.8z"/>
</svg>
