<?xml version="1.0" encoding="utf-8"?>
<!-- Generator: Adobe Illustrator 26.0.3, SVG Export Plug-In . SVG Version: 6.00 Build 0)  -->
<svg version="1.1" id="Layer_1" xmlns="http://www.w3.org/2000/svg" xmlns:xlink="http://www.w3.org/1999/xlink" x="0px" y="0px"
	 viewBox="0 0 96.88 53.21" style="enable-background:new 0 0 96.88 53.21;" xml:space="preserve">
<style type="text/css">
	.st0{fill:none;stroke:#000000;stroke-linecap:round;stroke-linejoin:round;stroke-miterlimit:10;}
	.st1{fill:none;stroke:#000000;stroke-width:0.5;stroke-miterlimit:10;}
</style>
<g>
	<polyline class="st0" points="67.62,22.23 67.62,48.12 29.26,48.12 29.26,22.23 	"/>
	<polygon class="st0" points="58.03,13.67 48.44,5.1 38.85,13.67 29.26,22.23 38.85,30.8 48.44,39.37 58.03,30.8 67.62,22.23 	"/>
	<g>
		<path class="st1" d="M52.75,14.7c1.24,0.65,2.21,1.56,2.9,2.72c0.69,1.16,1.04,2.47,1.04,3.94c0,1.51-0.3,2.69-0.89,3.55
			c-0.59,0.85-1.41,1.28-2.46,1.28c-0.56,0-1.03-0.13-1.41-0.39c-0.38-0.26-0.65-0.64-0.8-1.12c-0.7,1.01-1.74,1.52-3.14,1.52
			c-0.79,0-1.5-0.19-2.14-0.57c-0.64-0.38-1.14-0.9-1.5-1.58c-0.36-0.67-0.54-1.44-0.54-2.3c0-0.85,0.18-1.61,0.54-2.27
			c0.36-0.67,0.86-1.19,1.5-1.57c0.64-0.38,1.35-0.57,2.14-0.57c0.62,0,1.17,0.1,1.66,0.31c0.49,0.21,0.91,0.52,1.25,0.92v-1.13
			h1.93v5.92c0,0.42,0.08,0.72,0.25,0.91c0.17,0.19,0.39,0.28,0.65,0.28c0.48,0,0.84-0.27,1.09-0.81c0.25-0.54,0.37-1.32,0.37-2.34
			c0-1.23-0.28-2.32-0.85-3.26c-0.56-0.94-1.35-1.67-2.36-2.2c-1.01-0.52-2.17-0.78-3.48-0.78c-1.32,0-2.5,0.28-3.52,0.83
			c-1.02,0.55-1.81,1.32-2.37,2.31c-0.56,0.99-0.84,2.11-0.84,3.36c0,1.28,0.28,2.41,0.83,3.4c0.55,0.99,1.33,1.76,2.34,2.31
			c1.01,0.55,2.17,0.83,3.48,0.83c0.57,0,1.15-0.06,1.73-0.19c0.59-0.13,1.14-0.32,1.65-0.58l0.47,1.39
			c-0.51,0.27-1.11,0.47-1.8,0.61c-0.69,0.14-1.37,0.21-2.05,0.21c-1.63,0-3.06-0.34-4.31-1.03c-1.25-0.69-2.22-1.63-2.91-2.84
			c-0.69-1.21-1.04-2.58-1.04-4.11c0-1.51,0.35-2.87,1.05-4.07c0.7-1.2,1.68-2.15,2.94-2.83c1.26-0.69,2.71-1.03,4.35-1.03
			C50.1,13.72,51.51,14.05,52.75,14.7z M50.22,23.75c0.48-0.49,0.72-1.16,0.72-2.01c0-0.84-0.24-1.5-0.72-1.99
			c-0.48-0.49-1.1-0.73-1.86-0.73c-0.77,0-1.39,0.25-1.86,0.74c-0.48,0.49-0.71,1.15-0.71,1.98c0,0.84,0.24,1.5,0.71,2
			c0.48,0.5,1.1,0.75,1.86,0.75C49.12,24.49,49.73,24.24,50.22,23.75z"/>
	</g>
	<polygon class="st0" points="48.44,30.98 58.03,39.55 67.62,48.12 48.44,48.12 29.26,48.12 38.85,39.55 	"/>
</g>
</svg>
