<?xml version="1.0" encoding="utf-8"?>
<!-- Generator: Adobe Illustrator 26.0.3, SVG Export Plug-In . SVG Version: 6.00 Build 0)  -->
<svg version="1.1" id="Layer_1" xmlns="http://www.w3.org/2000/svg" xmlns:xlink="http://www.w3.org/1999/xlink" x="0px" y="0px"
	 viewBox="0 0 96.88 53.21" style="enable-background:new 0 0 96.88 53.21;" xml:space="preserve">
<style type="text/css">
	.st0{fill:#190F3C;stroke:#231F20;stroke-miterlimit:10;}
	.st1{fill:none;stroke:#231F20;stroke-linecap:round;stroke-linejoin:round;stroke-miterlimit:10;}
</style>
<g>
	<path class="st0" d="M52.01,6.87h-9.15c-0.2,0-0.36-0.16-0.36-0.36l0,0c0-0.2,0.16-0.36,0.36-0.36h9.15c0.2,0,0.36,0.16,0.36,0.36
		l0,0C52.37,6.71,52.21,6.87,52.01,6.87z"/>
	<g>
		<path class="st1" d="M57.15,47.94h-19.4c-0.71,0-1.28-0.57-1.28-1.28V6.2c0-0.71,0.57-1.28,1.28-1.28h19.4
			c0.71,0,1.28,0.57,1.28,1.28v40.46C58.43,47.37,57.86,47.94,57.15,47.94z"/>
		<path class="st1" d="M55.55,42.99H39.36c-0.71,0-1.28-0.57-1.28-1.28V9.63c0-0.71,0.57-1.28,1.28-1.28h16.19
			c0.71,0,1.28,0.57,1.28,1.28v32.08C56.83,42.42,56.25,42.99,55.55,42.99z"/>
		<g>
			<path class="st1" d="M61.91,19.1c1.96,1.48,3.22,3.83,3.22,6.48c0,2.47-1.1,4.68-2.83,6.17"/>
			<path class="st1" d="M64.07,15.82c2.97,2.25,4.89,5.82,4.89,9.83c0,3.74-1.67,7.1-4.3,9.36"/>
		</g>
		<g>
			<path class="st1" d="M32.97,19.1c-1.96,1.48-3.22,3.83-3.22,6.48c0,2.47,1.1,4.68,2.83,6.17"/>
			<path class="st1" d="M30.8,15.82c-2.97,2.25-4.89,5.82-4.89,9.83c0,3.74,1.67,7.1,4.3,9.36"/>
		</g>
	</g>
</g>
</svg>
