<?xml version="1.0" encoding="utf-8"?>
<!-- Generator: Adobe Illustrator 26.0.3, SVG Export Plug-In . SVG Version: 6.00 Build 0)  -->
<svg version="1.1" id="Layer_1" xmlns="http://www.w3.org/2000/svg" xmlns:xlink="http://www.w3.org/1999/xlink" x="0px" y="0px"
	 viewBox="0 0 96.88 53.21" style="enable-background:new 0 0 96.88 53.21;" xml:space="preserve">
<style type="text/css">
	.st0{fill:none;stroke:#231F20;stroke-linecap:round;stroke-linejoin:round;stroke-miterlimit:10;}
</style>
<path class="st0" d="M67.52,23.52l-6.55-6.54V7.9c0-0.31-0.26-0.57-0.57-0.57h-4.04c-0.31,0-0.57,0.26-0.57,0.57v3.9l-5.97-5.96
	c-0.76-0.76-1.99-0.76-2.74,0L29.36,23.55c-1.15,1.15-0.47,3.11,1.15,3.3l2.86,0.34v19.17c0,1.07,0.87,1.94,1.94,1.94h8.35V34.39
	c0-0.93,0.75-1.68,1.68-1.68h6.19c0.93,0,1.68,0.75,1.68,1.68V48.3h8.35c1.07,0,1.94-0.87,1.94-1.94V27.18l2.86-0.34
	C67.99,26.63,68.67,24.67,67.52,23.52z"/>
</svg>
