<?xml version="1.0" encoding="utf-8"?>
<!-- Generator: Adobe Illustrator 26.0.3, SVG Export Plug-In . SVG Version: 6.00 Build 0)  -->
<svg version="1.1" id="Layer_1" xmlns="http://www.w3.org/2000/svg" xmlns:xlink="http://www.w3.org/1999/xlink" x="0px" y="0px"
	 viewBox="0 0 595.28 841.89" style="enable-background:new 0 0 595.28 841.89;" xml:space="preserve">
<style type="text/css">
	.st0{fill:none;stroke:#FFFFFF;stroke-linecap:round;stroke-linejoin:round;stroke-miterlimit:10;}
	.st1{fill:#FFFFFF;stroke:#FFFFFF;stroke-miterlimit:10;}
	.st2{fill:none;stroke:#FFFFFF;stroke-miterlimit:10;}
</style>
<g>
	<g>
		<path class="st0" d="M325.47,385.88c3.28-0.53,6.18-1.45,8.46-2.66c2.16,2.36,3.76,5.24,4.58,8.43h0.01
			c-2.2-8.58-9.99-14.92-19.25-14.92C321.87,376.73,324.16,380.38,325.47,385.88z"/>
		<path class="st0" d="M300.01,391.65c0.83-3.19,2.42-6.07,4.58-8.43c2.28,1.21,5.18,2.14,8.46,2.66c1.31-5.5,3.6-9.15,6.21-9.15
			C309.99,376.73,302.21,383.07,300.01,391.65L300.01,391.65z"/>
	</g>
	<g>
		<path class="st0" d="M313.05,407.33c-3.28,0.53-6.18,1.45-8.46,2.66c-2.16-2.36-3.76-5.24-4.58-8.43H300
			c2.2,8.58,9.99,14.92,19.25,14.92C316.65,416.49,314.36,412.84,313.05,407.33z"/>
		<path class="st0" d="M338.51,401.57c-0.83,3.19-2.42,6.07-4.58,8.43c-2.28-1.21-5.18-2.14-8.46-2.66c-1.31,5.5-3.6,9.15-6.21,9.15
			C328.53,416.49,336.31,410.15,338.51,401.57L338.51,401.57z"/>
	</g>
	<g>
		<path class="st1" d="M321.28,400.35C321.27,400.35,321.27,400.35,321.28,400.35c-0.37,0-0.7-0.23-0.83-0.57l-1.17-3.03l-1.37,3.08
			c-0.15,0.33-0.48,0.56-0.85,0.53c-0.36-0.01-0.68-0.25-0.81-0.59l-2.06-5.69c-0.17-0.46,0.07-0.98,0.54-1.14
			c0.46-0.17,0.98,0.07,1.14,0.54l1.3,3.61l1.35-3.02c0.15-0.33,0.48-0.53,0.84-0.53c0.36,0.01,0.68,0.24,0.81,0.57l1.11,2.89
			l1.37-3.54c0.18-0.46,0.7-0.69,1.16-0.51c0.46,0.18,0.69,0.7,0.51,1.16l-2.21,5.69C321.97,400.12,321.64,400.35,321.28,400.35z"/>
	</g>
	<g>
		<path class="st1" d="M334.7,400.35C334.7,400.35,334.7,400.35,334.7,400.35c-0.37,0-0.7-0.23-0.83-0.57l-1.17-3.03l-1.37,3.08
			c-0.15,0.33-0.48,0.56-0.85,0.53c-0.36-0.01-0.68-0.25-0.81-0.59l-2.06-5.69c-0.17-0.46,0.07-0.98,0.54-1.14
			c0.46-0.17,0.98,0.07,1.14,0.54l1.3,3.61l1.35-3.02c0.15-0.33,0.48-0.53,0.84-0.53c0.36,0.01,0.68,0.24,0.81,0.57l1.11,2.89
			l1.37-3.54c0.18-0.46,0.7-0.69,1.16-0.51c0.46,0.18,0.69,0.7,0.51,1.16l-2.21,5.69C335.4,400.12,335.07,400.35,334.7,400.35z"/>
	</g>
	<g>
		<path class="st1" d="M303.4,400.35c-0.01,0-0.02,0-0.03,0c-0.36-0.01-0.68-0.25-0.81-0.59l-2.06-5.69
			c-0.17-0.46,0.07-0.98,0.54-1.14c0.46-0.17,0.98,0.07,1.14,0.54l1.3,3.61l1.35-3.02c0.15-0.33,0.47-0.53,0.84-0.53
			c0.36,0.01,0.68,0.24,0.81,0.57l1.11,2.89l1.37-3.54c0.18-0.46,0.7-0.69,1.16-0.51c0.46,0.18,0.69,0.7,0.51,1.16l-2.21,5.69
			c-0.13,0.34-0.46,0.57-0.83,0.57c0,0,0,0,0,0c-0.37,0-0.7-0.23-0.83-0.57l-1.17-3.03l-1.37,3.08
			C304.07,400.14,303.75,400.35,303.4,400.35z"/>
	</g>
	<path class="st0" d="M312.12,391.65c0.82-8.58,3.7-14.92,7.14-14.92s6.33,6.34,7.14,14.92"/>
	<path class="st0" d="M326.4,401.57c-0.82,8.58-3.7,14.92-7.14,14.92s-6.33-6.34-7.14-14.92"/>
	<line class="st0" x1="297.75" y1="391.65" x2="340.77" y2="391.65"/>
	<line class="st2" x1="297.75" y1="401.57" x2="340.77" y2="401.57"/>
</g>
</svg>
